<?xml version="1.0" encoding="UTF-8" standalone="no"?>
<!DOCTYPE svg PUBLIC "-//W3C//DTD SVG 1.1//EN" "http://www.w3.org/Graphics/SVG/1.1/DTD/svg11.dtd">
<svg width="100%" height="100%" viewBox="0 0 972 972" version="1.1" xmlns="http://www.w3.org/2000/svg" xmlns:xlink="http://www.w3.org/1999/xlink" xml:space="preserve" xmlns:serif="http://www.serif.com/" style="fill-rule:evenodd;clip-rule:evenodd;stroke-linejoin:round;stroke-miterlimit:2;">
    <g transform="matrix(0.24,0,0,0.24,0,0)">
        <g id="Layer-1" serif:id="Layer 1" transform="matrix(4.16667,0,0,4.16667,0,0)">
            <g transform="matrix(-723.072,1359.14,1359.14,723.072,589.278,-9.9152)">
                <path d="M0.096,0.07C0.123,0.051 0.144,0.025 0.166,-0C0.188,-0.025 0.213,-0.049 0.244,-0.06C0.269,-0.068 0.297,-0.068 0.322,-0.058C0.335,-0.053 0.348,-0.045 0.358,-0.036C0.268,-0.021 0.214,0.056 0.205,0.101C0.226,0.054 0.3,-0.014 0.397,-0.015C0.423,-0.015 0.456,-0.014 0.48,-0.003C0.43,-0.011 0.4,0.003 0.367,0.026C0.334,0.05 0.307,0.091 0.276,0.116C0.244,0.141 0.209,0.164 0.169,0.171C0.136,0.177 0.101,0.171 0.071,0.156C0.041,0.141 0.017,0.116 0.002,0.085C0.033,0.098 0.068,0.088 0.096,0.07Z" style="fill:rgb(80,70,229);fill-rule:nonzero;"/>
            </g>
            <g transform="matrix(-102.607,1298.51,1298.51,102.607,425.971,-3.34906)">
                <path d="M0.401,-0.281C0.52,-0.271 0.622,-0.204 0.68,-0.109C0.703,-0.101 0.726,-0.088 0.745,-0.072C0.703,-0.071 0.666,-0.041 0.643,-0.006C0.621,0.03 0.61,0.071 0.597,0.111C0.583,0.151 0.566,0.192 0.536,0.22C0.511,0.243 0.478,0.257 0.444,0.259C0.426,0.26 0.407,0.257 0.39,0.251C0.488,0.187 0.512,0.071 0.499,0.014C0.499,0.079 0.447,0.195 0.334,0.246C0.303,0.26 0.265,0.275 0.231,0.275C0.293,0.258 0.322,0.227 0.348,0.183C0.375,0.139 0.385,0.077 0.409,0.031C0.433,-0.014 0.463,-0.058 0.506,-0.087C0.534,-0.105 0.567,-0.117 0.601,-0.119C0.551,-0.177 0.479,-0.216 0.396,-0.223C0.23,-0.236 0.085,-0.112 0.072,0.054C0.07,0.083 0.072,0.112 0.078,0.14C0.078,0.14 0.077,0.14 0.077,0.14C0.065,0.159 0.049,0.176 0.031,0.189C0.017,0.145 0.011,0.098 0.014,0.049C0.03,-0.149 0.203,-0.296 0.401,-0.281Z" style="fill:rgb(178,182,247);fill-rule:nonzero;"/>
            </g>
            <g transform="matrix(-779.837,1465.84,1465.84,779.837,1221.76,283.235)">
                <path d="M0.06,-0.293C0.068,-0.288 0.077,-0.285 0.085,-0.282C0.099,-0.217 0.141,-0.157 0.206,-0.123C0.321,-0.062 0.464,-0.106 0.525,-0.221C0.536,-0.241 0.544,-0.262 0.548,-0.283C0.548,-0.284 0.549,-0.284 0.549,-0.284C0.564,-0.294 0.58,-0.301 0.597,-0.304C0.594,-0.269 0.583,-0.233 0.565,-0.199C0.492,-0.062 0.322,-0.01 0.184,-0.083C0.096,-0.13 0.044,-0.216 0.036,-0.308C0.043,-0.302 0.051,-0.297 0.06,-0.293Z" style="fill:rgb(80,70,229);fill-rule:nonzero;"/>
            </g>
        </g>
    </g>
</svg>
