<?xml version="1.0" encoding="UTF-8" standalone="no"?>
<!DOCTYPE svg PUBLIC "-//W3C//DTD SVG 1.1//EN" "http://www.w3.org/Graphics/SVG/1.1/DTD/svg11.dtd">
<svg width="100%" height="100%" viewBox="0 0 892 574" version="1.1" xmlns="http://www.w3.org/2000/svg" xmlns:xlink="http://www.w3.org/1999/xlink" xml:space="preserve" xmlns:serif="http://www.serif.com/" style="fill-rule:evenodd;clip-rule:evenodd;stroke-linejoin:round;stroke-miterlimit:2;">
    <g transform="matrix(1,0,0,1,-153.846,-158.537)">
        <path d="M222.569,620.336L216.275,595.514C205.116,590.784 193.699,586.688 182.078,583.245L181.284,594.781L178.061,582.072C163.65,577.957 153.846,576.144 153.846,576.144C153.846,576.144 167.089,626.503 194.865,665.004L227.231,670.689L202.087,674.314C205.582,678.519 209.339,682.5 213.334,686.233C253.741,723.74 298.747,740.948 313.857,724.669C328.968,708.39 308.461,664.788 268.054,627.282C255.527,615.655 239.791,606.324 224.04,598.98L222.569,620.336Z" style="fill:rgb(230,230,230);fill-rule:nonzero;"/>
    </g>
    <g transform="matrix(1,0,0,1,-153.846,-158.537)">
        <path d="M282.425,593.38L289.868,568.877C282.76,559.06 275.103,549.652 266.936,540.698L260.292,550.163L264.103,537.617C253.894,526.645 246.438,520.026 246.438,520.026C246.438,520.026 231.744,569.981 235.621,617.297L260.388,638.893L236.99,629C237.809,634.406 238.967,639.756 240.457,645.017C255.66,698.01 285.292,736.005 306.642,729.88C327.992,723.755 332.975,675.83 317.772,622.836C313.059,606.408 304.411,590.286 294.723,575.858L282.425,593.38Z" style="fill:rgb(230,230,230);fill-rule:nonzero;"/>
    </g>
    <g transform="matrix(1,0,0,1,-153.846,-158.537)">
        <path d="M975.588,646.175L989.697,637.306C990.39,629.449 990.64,621.559 990.444,613.674L983.142,615.493L990.366,610.952C990.027,601.204 989.186,594.77 989.186,594.77C989.186,594.77 960.656,613.057 942.38,637.969L945.343,659.148L938.062,644.305C936.158,647.312 934.446,650.436 932.934,653.657C917.804,686.19 916.164,717.505 929.271,723.6C942.378,729.696 965.268,708.264 980.398,675.731C985.089,665.646 987.714,654.033 989.106,642.808L975.588,646.175Z" style="fill:rgb(230,230,230);fill-rule:nonzero;"/>
    </g>
    <g transform="matrix(1,0,0,1,-153.846,-158.537)">
        <path d="M1004.27,677.839L1020.93,677.54C1025.59,671.172 1029.88,664.546 1033.79,657.695L1026.6,655.478L1035.13,655.324C1039.88,646.805 1042.48,640.862 1042.48,640.862C1042.48,640.862 1008.61,641.77 980.084,653.648L971.673,673.311L973.112,656.841C969.928,658.431 966.848,660.219 963.889,662.196C934.12,682.225 916.53,708.184 924.599,720.177C932.668,732.17 963.341,725.655 993.11,705.626C1002.34,699.417 1010.59,690.833 1017.58,681.944L1004.27,677.839Z" style="fill:rgb(230,230,230);fill-rule:nonzero;"/>
    </g>
    <rect x="2.029" y="571.273" width="888" height="2.241" style="fill:rgb(63,61,86);"/>
    <g transform="matrix(0.89381,0.448445,-0.448445,0.89381,-9.62947,-315.579)">
        <rect x="402.421" y="219.049" width="2.573" height="13.894" style="fill:white;"/>
    </g>
    <g transform="matrix(0.993276,-0.115771,0.115771,0.993276,-212.925,-109.271)">
        <rect x="394.196" y="531.16" width="0.767" height="4.142" style="fill:rgb(63,61,86);"/>
    </g>
    <g transform="matrix(0.314921,0.949118,-0.949118,0.314921,657.093,-146.574)">
        <rect x="396.799" y="565.653" width="0.767" height="4.142" style="fill:white;"/>
    </g>
    <g transform="matrix(0.998197,-0.060017,0.060017,0.998197,-186.034,-133.815)">
        <rect x="395.063" y="546.129" width="0.767" height="4.142" style="fill:white;"/>
    </g>
    <g transform="matrix(0.998197,-0.060017,0.060017,0.998197,-184.68,-134.071)">
        <rect x="391.484" y="523.458" width="0.767" height="4.142" style="fill:white;"/>
    </g>
    <g transform="matrix(0.374543,0.927209,-0.927209,0.374543,625.746,-232.707)">
        <rect x="444.389" y="538.698" width="0.767" height="4.142" style="fill:rgb(255,101,132);"/>
    </g>
    <g transform="matrix(0.965926,0.258819,-0.258819,0.965926,-0.16235,-243.798)">
        <rect x="400.27" y="538.969" width="0.767" height="4.142" style="fill:rgb(255,101,132);"/>
    </g>
    <rect x="286.479" y="70.608" width="2.418" height="13.058" style="fill:rgb(63,61,86);"/>
    <rect x="285.028" y="102.042" width="2.418" height="13.058" style="fill:white;"/>
    <g transform="matrix(0.707107,0.707107,-0.707107,0.707107,352.413,-311.547)">
        <rect x="437.469" y="532.657" width="0.721" height="3.892" style="fill:white;"/>
    </g>
    <g transform="matrix(0.707107,0.707107,-0.707107,0.707107,384.014,-304.453)">
        <rect x="444.706" y="574.35" width="0.721" height="3.892" style="fill:white;"/>
    </g>
    <g transform="matrix(0.965926,0.258819,-0.258819,0.965926,6.00519,-253.365)">
        <rect x="439.711" y="557.734" width="0.721" height="3.892" style="fill:rgb(255,101,132);"/>
    </g>
    <g transform="matrix(0.707107,0.707107,-0.707107,0.707107,360.577,-310.868)">
        <rect x="440.731" y="542.851" width="0.721" height="3.892" style="fill:rgb(255,101,132);"/>
    </g>
    <g transform="matrix(1,0,0,1,-153.846,-158.537)">
        <path d="M431.652,543.207C432.272,542.587 432.62,541.745 432.62,540.869C432.62,539.055 431.128,537.562 429.314,537.562C428.437,537.562 427.595,537.911 426.975,538.531L321.459,644.047C320.839,644.667 320.49,645.509 320.49,646.385C320.49,648.199 321.983,649.692 323.797,649.692C324.674,649.692 325.515,649.344 326.135,648.724L430.973,543.886" style="fill:rgb(63,61,86);fill-rule:nonzero;"/>
    </g>
    <g transform="matrix(1,0,0,1,-153.846,-158.537)">
        <path d="M442.437,529.89C433.12,520.584 420.476,515.351 407.307,515.351C380.037,515.351 357.596,537.791 357.596,565.062C357.596,592.332 380.037,614.772 407.307,614.772C429.063,614.772 448.408,600.49 454.814,579.699C460.228,562.11 455.454,542.899 442.437,529.89ZM401.735,583.984C398.313,583.034 395.195,581.215 392.684,578.703C392.177,578.195 391.707,577.66 391.256,577.114C388.274,573.441 386.646,568.851 386.646,564.119C386.646,552.807 395.955,543.498 407.267,543.498C418.579,543.498 427.888,552.807 427.888,564.119C427.888,575.432 418.579,584.74 407.267,584.74C405.397,584.74 403.536,584.486 401.735,583.984Z" style="fill:rgb(234,88,11);fill-rule:nonzero;"/>
    </g>
    <g transform="matrix(1,0,0,1,-153.846,-158.537)">
        <path d="M329.772,253.482C329.772,247.397 324.764,242.389 318.679,242.389C312.593,242.389 307.586,247.397 307.586,253.482L307.586,721.021C307.586,727.106 312.593,732.114 318.679,732.114C324.764,732.114 329.772,727.106 329.772,721.021L329.772,256.704" style="fill:rgb(63,61,86);fill-rule:nonzero;"/>
    </g>
    <g transform="matrix(1,0,0,1,-153.846,-158.537)">
        <path d="M471.274,249.338C442.407,194.736 385.498,160.451 323.735,160.451C232.182,160.451 156.846,235.787 156.846,327.34C156.846,418.892 232.182,494.229 323.735,494.229C415.269,494.229 490.598,418.922 490.624,327.387C490.635,300.184 483.991,273.386 471.274,249.338ZM357.766,387.628C347.392,393.484 335.679,396.561 323.766,396.561C285.822,396.561 254.599,365.339 254.599,327.395C254.599,289.451 285.822,258.228 323.766,258.228C361.707,258.228 392.929,289.447 392.933,327.387C393.007,352.328 379.52,375.431 357.766,387.628L357.766,387.628Z" style="fill:rgb(234,88,11);fill-rule:nonzero;"/>
    </g>
    <g transform="matrix(1,0,0,1,-153.846,-158.537)">
        <path d="M323.29,483.591C233.726,483.589 159.323,411.469 156.532,321.948C156.474,323.753 156.445,325.565 156.444,327.384C156.443,327.397 156.443,327.411 156.443,327.424C156.443,418.954 231.761,494.271 323.29,494.271C414.82,494.271 490.137,418.954 490.137,327.424C490.137,327.411 490.137,327.397 490.137,327.384C490.137,325.563 490.107,323.749 490.049,321.942C487.261,411.465 412.856,483.589 323.29,483.591Z" style="fill-opacity:0.2;fill-rule:nonzero;"/>
    </g>
    <g transform="matrix(1,0,0,1,-153.846,-158.537)">
        <path d="M323.773,244.131C278.105,244.134 240.527,281.714 240.527,327.383C240.527,373.053 278.108,410.634 323.778,410.634C369.447,410.634 407.027,373.056 407.03,327.387C406.979,281.734 369.427,244.182 323.773,244.131ZM357.766,387.628C347.392,393.484 335.679,396.561 323.766,396.561C285.822,396.561 254.599,365.339 254.599,327.395C254.599,289.451 285.822,258.228 323.766,258.228C361.707,258.228 392.929,289.447 392.933,327.387C393.007,352.328 379.52,375.431 357.766,387.628Z" style="fill-opacity:0.2;fill-rule:nonzero;"/>
    </g>
    <g transform="matrix(1,0,0,1,-153.846,-158.537)">
        <path d="M471.276,247.333L471.276,275.088C471.276,275.09 471.276,275.093 471.276,275.095C471.276,280.662 466.695,285.244 461.128,285.244C458.361,285.244 455.712,284.113 453.798,282.115L453.798,285.278C453.798,291.892 448.356,297.334 441.742,297.334C435.128,297.334 429.685,291.892 429.685,285.278L429.685,282.642C427.823,284.316 425.406,285.244 422.902,285.244C417.338,285.244 412.759,280.665 412.759,275.1C412.759,275.096 412.759,275.092 412.759,275.088L412.275,245.587L412.275,238.783C412.272,236.53 410.417,234.679 408.164,234.679C405.912,234.679 404.057,236.53 404.054,238.783L404.054,245.587L403.57,270.252C403.57,275.823 398.986,280.408 393.414,280.408C387.843,280.408 383.258,275.823 383.258,270.252L382.015,245.587L382.015,232.98C382.015,229.284 378.974,226.243 375.279,226.243C371.583,226.243 368.542,229.284 368.542,232.98L368.542,245.587L367.783,270.252C367.783,270.254 367.783,270.257 367.783,270.259C367.783,275.827 363.202,280.408 357.635,280.408C354.518,280.408 351.569,278.972 349.647,276.519C346.33,280.76 340.183,281.653 335.796,278.531L335.796,285.278C335.796,291.892 330.354,297.334 323.74,297.334C317.126,297.334 311.683,291.892 311.683,285.278L311.683,264.448C311.683,264.45 311.683,264.451 311.683,264.452C311.683,270.021 307.101,274.604 301.532,274.604C297.542,274.604 293.906,272.252 292.271,268.612L292.271,285.278C292.271,291.892 286.829,297.334 280.215,297.334C273.601,297.334 268.158,291.892 268.158,285.278L268.158,245.587L268.09,245.587L268.09,285.278C268.09,291.892 262.648,297.334 256.034,297.334C249.42,297.334 243.977,291.892 243.977,285.278L243.977,268.752C242.311,272.317 238.717,274.604 234.783,274.604C229.215,274.604 224.633,270.022 224.633,264.454C224.633,264.452 224.633,264.45 224.633,264.448L224.633,245.587L223.598,245.587L223.598,279.474C223.598,286.088 218.156,291.531 211.542,291.531C204.927,291.531 199.485,286.088 199.485,279.474L199.485,264.448C199.485,264.452 199.485,264.455 199.485,264.458C199.485,270.03 194.9,274.614 189.329,274.614C183.758,274.614 179.173,270.03 179.173,264.458C179.173,264.455 179.173,264.452 179.173,264.448L179.173,242.091C208.935,190.457 264.179,158.537 323.776,158.537C385.504,158.537 442.388,192.781 471.276,247.333Z" style="fill:rgb(230,230,230);fill-rule:nonzero;"/>
    </g>
    <g transform="matrix(1,0,0,1,-153.846,-158.537)">
        <path d="M256.035,291.531L256.033,291.531C249.42,291.531 243.978,286.089 243.978,279.475C243.978,279.475 243.978,279.474 243.978,279.474L243.978,285.761C243.978,292.375 249.42,297.818 256.034,297.818C262.648,297.818 268.091,292.375 268.091,285.761L268.091,279.474C268.091,279.474 268.091,279.475 268.091,279.475C268.091,286.089 262.648,291.531 256.035,291.531Z" style="fill-opacity:0.2;fill-rule:nonzero;"/>
    </g>
    <g transform="matrix(1,0,0,1,-153.846,-158.537)">
        <path d="M280.216,291.531L280.214,291.531C273.6,291.531 268.158,286.089 268.158,279.475C268.158,279.475 268.158,279.474 268.158,279.474L268.158,285.761C268.158,292.375 273.601,297.818 280.215,297.818C286.829,297.818 292.271,292.375 292.271,285.761L292.271,279.474C292.271,279.474 292.271,279.475 292.271,279.475C292.271,286.089 286.829,291.531 280.216,291.531Z" style="fill-opacity:0.2;fill-rule:nonzero;"/>
    </g>
    <g transform="matrix(1,0,0,1,-153.846,-158.537)">
        <path d="M243.978,262.949C242.312,266.513 238.717,268.801 234.783,268.801C229.215,268.801 224.633,264.219 224.633,258.651C224.633,258.649 224.633,258.647 224.633,258.645L224.633,264.932C224.633,264.934 224.633,264.936 224.633,264.938C224.633,270.506 229.215,275.088 234.783,275.088C238.717,275.088 242.312,272.8 243.978,269.236L243.978,262.949Z" style="fill-opacity:0.2;fill-rule:nonzero;"/>
    </g>
    <rect x="114.245" y="81.247" width="0.068" height="6.287" style="fill-opacity:0.2;"/>
    <g transform="matrix(1,0,0,1,-153.846,-158.537)">
        <path d="M199.485,258.645C199.48,264.212 194.897,268.791 189.329,268.791C183.762,268.791 179.179,264.212 179.173,258.645L179.173,264.932C179.179,270.499 183.762,275.078 189.329,275.078C194.897,275.078 199.48,270.499 199.485,264.932L199.485,258.645Z" style="fill-opacity:0.2;fill-rule:nonzero;"/>
    </g>
    <rect x="69.752" y="81.247" width="1.035" height="6.287" style="fill-opacity:0.2;"/>
    <g transform="matrix(1,0,0,1,-153.846,-158.537)">
        <path d="M211.543,285.727L211.541,285.727C204.927,285.727 199.485,280.285 199.485,273.672C199.485,273.671 199.485,273.671 199.485,273.671L199.485,279.958C199.485,286.572 204.928,292.014 211.542,292.014C218.156,292.014 223.598,286.572 223.598,279.958L223.598,273.671C223.598,273.671 223.598,273.671 223.598,273.672C223.598,280.285 218.156,285.727 211.543,285.727Z" style="fill-opacity:0.2;fill-rule:nonzero;"/>
    </g>
    <g transform="matrix(1,0,0,1,-153.846,-158.537)">
        <path d="M323.741,291.531L323.739,291.531C317.126,291.531 311.683,286.089 311.683,279.475C311.683,279.475 311.683,279.474 311.683,279.474L311.683,285.761C311.683,292.375 317.126,297.818 323.74,297.818C330.354,297.818 335.796,292.375 335.796,285.761L335.796,279.474C335.796,279.474 335.796,279.475 335.796,279.475C335.796,286.089 330.354,291.531 323.741,291.531Z" style="fill-opacity:0.2;fill-rule:nonzero;"/>
    </g>
    <g transform="matrix(1,0,0,1,-153.846,-158.537)">
        <path d="M412.275,232.98C412.275,230.724 410.419,228.869 408.164,228.869C405.909,228.869 404.054,230.724 404.054,232.98L404.054,239.267C404.054,239.264 404.054,239.262 404.054,239.26C404.054,237.005 405.909,235.149 408.164,235.149C410.419,235.149 412.275,237.005 412.275,239.26C412.275,239.262 412.275,239.264 412.275,239.267L412.275,232.98Z" style="fill-opacity:0.2;fill-rule:nonzero;"/>
    </g>
    <g transform="matrix(1,0,0,1,-153.846,-158.537)">
        <path d="M311.683,258.645C311.683,258.646 311.683,258.648 311.683,258.649C311.683,264.218 307.101,268.801 301.532,268.801C297.542,268.801 293.906,266.448 292.271,262.809L292.271,269.096C293.906,272.735 297.542,275.088 301.532,275.088C307.101,275.088 311.683,270.505 311.683,264.936C311.683,264.935 311.683,264.933 311.683,264.932L311.683,258.645Z" style="fill-opacity:0.2;fill-rule:nonzero;"/>
    </g>
    <g transform="matrix(1,0,0,1,-153.846,-158.537)">
        <path d="M393.415,274.604L393.413,274.604C387.842,274.604 383.258,270.02 383.258,264.45C383.258,264.449 383.258,264.449 383.258,264.448L382.015,239.784L382.015,246.071L383.258,270.735C383.258,276.307 387.843,280.891 393.414,280.891C398.986,280.891 403.57,276.307 403.57,270.735L404.054,246.071L404.054,239.784L403.57,264.448C403.57,264.449 403.57,264.449 403.57,264.45C403.57,270.02 398.986,274.604 393.415,274.604Z" style="fill-opacity:0.2;fill-rule:nonzero;"/>
    </g>
    <g transform="matrix(1,0,0,1,-153.846,-158.537)">
        <path d="M461.12,279.44C458.356,279.441 455.708,278.31 453.798,276.311L453.798,279.474C453.798,286.088 448.356,291.531 441.742,291.531C435.128,291.531 429.685,286.088 429.685,279.474L429.685,276.838C427.823,278.513 425.406,279.44 422.902,279.44C417.337,279.44 412.759,274.861 412.759,269.297C412.759,269.293 412.759,269.289 412.759,269.284L412.275,239.784L412.275,246.071L412.759,275.571C412.759,275.576 412.759,275.58 412.759,275.584C412.759,281.149 417.338,285.727 422.902,285.727C425.406,285.727 427.823,284.8 429.685,283.125L429.685,285.761C429.685,292.375 435.128,297.818 441.742,297.818C448.356,297.818 453.798,292.375 453.798,285.761L453.798,282.598C455.712,284.596 458.361,285.727 461.127,285.727C466.695,285.727 471.276,281.146 471.276,275.579C471.276,275.576 471.276,275.574 471.276,275.571L471.276,269.284C471.276,269.285 471.276,269.285 471.276,269.286C471.276,274.856 466.692,279.44 461.121,279.44C461.121,279.44 461.121,279.44 461.12,279.44Z" style="fill-opacity:0.2;fill-rule:nonzero;"/>
    </g>
    <g transform="matrix(1,0,0,1,-153.846,-158.537)">
        <path d="M357.627,274.604C354.513,274.604 351.566,273.169 349.647,270.716C346.33,274.956 340.183,275.849 335.796,272.728L335.796,279.015C340.183,282.136 346.33,281.243 349.647,277.003C351.569,279.456 354.518,280.891 357.635,280.891C363.202,280.891 367.783,276.31 367.783,270.743C367.783,270.74 367.783,270.738 367.783,270.735L368.542,246.071L368.542,239.784L367.783,264.448C367.783,264.449 367.783,264.449 367.783,264.45C367.783,270.02 363.199,274.604 357.628,274.604C357.628,274.604 357.627,274.604 357.627,274.604Z" style="fill-opacity:0.2;fill-rule:nonzero;"/>
    </g>
    <g transform="matrix(1,0,0,1,-153.846,-158.537)">
        <path d="M382.015,227.176C382.015,223.481 378.974,220.439 375.279,220.439C371.583,220.439 368.542,223.481 368.542,227.176L368.542,233.463C368.542,229.768 371.583,226.726 375.279,226.726C378.974,226.726 382.015,229.768 382.015,233.463L382.015,227.176Z" style="fill-opacity:0.2;fill-rule:nonzero;"/>
    </g>
    <rect x="113.103" y="69.882" width="2.418" height="13.058" style="fill:rgb(63,61,86);"/>
    <rect x="158.805" y="62.87" width="2.418" height="13.058" style="fill:rgb(63,61,86);"/>
    <rect x="100.771" y="114.133" width="2.418" height="13.058" style="fill:rgb(63,61,86);"/>
    <g transform="matrix(0.82235,0.56898,-0.56898,0.82235,53.3496,-313.086)">
        <rect x="349.889" y="248.005" width="2.418" height="13.058" style="fill:rgb(63,61,86);"/>
    </g>
    <g transform="matrix(0.62049,-0.784214,0.784214,0.62049,-249.431,112.392)">
        <rect x="230.92" y="227.694" width="2.418" height="13.058" style="fill:rgb(63,61,86);"/>
    </g>
    <g transform="matrix(0.62049,-0.784214,0.784214,0.62049,-157.167,205.356)">
        <rect x="373.102" y="178.849" width="2.418" height="13.058" style="fill:rgb(63,61,86);"/>
    </g>
    <g transform="matrix(0.62049,-0.784214,0.784214,0.62049,-270.145,96.6716)">
        <rect x="204.321" y="241.235" width="2.418" height="13.058" style="fill:rgb(63,61,86);"/>
    </g>
    <rect x="122.05" y="39.173" width="2.418" height="13.058" style="fill:white;"/>
    <rect x="55.795" y="106.395" width="2.418" height="13.058" style="fill:white;"/>
    <rect x="168.961" y="20.312" width="2.418" height="13.058" style="fill:white;"/>
    <g transform="matrix(0.89381,0.448445,-0.448445,0.89381,-15.2249,-284.202)">
        <rect x="333.446" y="223.341" width="2.418" height="13.058" style="fill:white;"/>
    </g>
    <g transform="matrix(0.89381,0.448445,-0.448445,0.89381,5.28136,-274.078)">
        <rect x="322.323" y="271.702" width="2.418" height="13.058" style="fill:white;"/>
    </g>
    <g transform="matrix(0.663394,-0.748271,0.748271,0.663394,-241.697,149.436)">
        <rect x="297.175" y="245.104" width="2.418" height="13.058" style="fill:white;"/>
    </g>
    <g transform="matrix(0.663394,-0.748271,0.748271,0.663394,-215.474,94.5646)">
        <rect x="249.297" y="188.521" width="2.418" height="13.058" style="fill:white;"/>
    </g>
    <g transform="matrix(0.663394,-0.748271,0.748271,0.663394,-178.201,220.946)">
        <rect x="408.406" y="210.284" width="2.418" height="13.058" style="fill:white;"/>
    </g>
    <g transform="matrix(0.663394,-0.748271,0.748271,0.663394,-166.053,162.834)">
        <rect x="349.889" y="167.726" width="2.418" height="13.058" style="fill:white;"/>
    </g>
    <rect x="140.428" y="62.87" width="2.418" height="13.058" style="fill:rgb(255,101,132);"/>
    <g transform="matrix(0.920478,0.390794,-0.390794,0.920478,-27.785,-307.658)">
        <rect x="428.234" y="228.661" width="2.418" height="13.058" style="fill:rgb(255,101,132);"/>
    </g>
    <g transform="matrix(0.866025,-0.5,0.5,0.866025,-244.65,0.0399)">
        <rect x="249.297" y="242.202" width="2.418" height="13.058" style="fill:rgb(255,101,132);"/>
    </g>
    <g transform="matrix(0.866025,-0.5,0.5,0.866025,-221.525,67.9656)">
        <rect x="387.611" y="233.013" width="2.418" height="13.058" style="fill:rgb(255,101,132);"/>
    </g>
    <g transform="matrix(0.86603,-0.5,0.5,0.86603,-209.119,18.5096)">
        <rect x="301.528" y="185.136" width="2.418" height="13.058" style="fill:rgb(255,101,132);"/>
    </g>
    <g transform="matrix(0.866025,-0.5,0.5,0.866025,-194.174,69.4487)">
        <rect x="404.054" y="182.718" width="2.418" height="13.058" style="fill:rgb(255,101,132);"/>
    </g>
    <g transform="matrix(0.866025,-0.5,0.5,0.866025,-206.672,1.52637)">
        <rect x="271.06" y="172.078" width="2.418" height="13.058" style="fill:rgb(255,101,132);"/>
    </g>
    <rect x="200.879" y="36.755" width="2.418" height="13.058" style="fill:rgb(255,101,132);"/>
    <rect x="61.599" y="58.517" width="2.418" height="13.058" style="fill:rgb(255,101,132);"/>
    <g transform="matrix(1,0,0,1,-153.846,-158.537)">
        <path d="M374.238,597.888C355.359,579.009 354.878,548.124 373.16,528.666C372.767,529.034 372.379,529.409 371.995,529.793C362.662,539.118 357.413,551.783 357.413,564.976C357.413,592.261 379.865,614.713 407.15,614.713C420.343,614.713 433.009,609.464 442.334,600.131C442.718,599.747 443.094,599.359 443.462,598.965C424.004,617.248 393.118,616.768 374.238,597.888Z" style="fill-opacity:0.2;fill-rule:nonzero;"/>
    </g>
    <g transform="matrix(1,0,0,1,-153.846,-158.537)">
        <path d="M426.827,545.5C421.639,540.308 414.592,537.388 407.252,537.388C392.071,537.388 379.578,549.88 379.578,565.062C379.578,580.243 392.071,592.735 407.252,592.735C414.592,592.735 421.639,589.815 426.827,584.623C437.535,573.882 437.535,556.242 426.827,545.5ZM421.846,578.703C413.846,586.698 400.685,586.698 392.684,578.703C392.177,578.195 391.707,577.66 391.256,577.114C388.277,573.442 386.65,568.855 386.65,564.127C386.65,552.817 395.957,543.51 407.267,543.51C418.576,543.51 427.883,552.817 427.883,564.127C427.883,569.591 425.71,574.838 421.846,578.703Z" style="fill-opacity:0.2;fill-rule:nonzero;"/>
    </g>
    <g transform="matrix(1,0,0,1,-153.846,-158.537)">
        <path d="M455.81,578.703L449.96,584.554C449.393,585.122 448.622,585.441 447.819,585.441C446.16,585.441 444.794,584.076 444.794,582.416C444.794,582.394 444.794,582.373 444.795,582.351L444.128,583.017C443.454,583.691 442.539,584.07 441.587,584.07C439.615,584.07 437.993,582.448 437.993,580.476C437.993,579.523 438.372,578.609 439.045,577.935L439.601,577.379C438.005,577.295 436.737,575.958 436.737,574.36C436.737,573.557 437.057,572.786 437.625,572.219L443.742,565.899L445.176,564.464C445.406,564.235 445.535,563.923 445.535,563.598C445.535,562.926 444.982,562.372 444.309,562.372C443.985,562.372 443.673,562.502 443.443,562.731L442.009,564.166L436.708,569.263C436.14,569.83 435.37,570.149 434.567,570.149C432.906,570.149 431.54,568.783 431.54,567.122C431.54,566.319 431.859,565.549 432.426,564.981L437.363,559.52L440.021,556.863C440.394,556.487 440.603,555.978 440.603,555.449C440.603,554.347 439.696,553.441 438.595,553.441C438.065,553.441 437.557,553.65 437.181,554.023L434.523,556.68L429.164,561.719C426.761,560.294 424.193,559.165 421.519,558.355C421.075,557.912 420.781,557.341 420.677,556.722L419.255,558.144C418.581,558.818 417.666,559.197 416.713,559.197C414.742,559.197 413.119,557.574 413.119,555.603C413.119,554.65 413.498,553.735 414.172,553.061L418.563,548.671C417.995,549.239 417.225,549.558 416.422,549.558C414.762,549.558 413.396,548.192 413.396,546.532C413.396,546.164 413.462,545.8 413.593,545.457L410.08,548.97C409.406,549.643 408.491,550.022 407.539,550.022C405.567,550.022 403.945,548.4 403.945,546.428C403.945,545.475 404.324,544.561 404.997,543.887L413.363,535.521L413.349,535.506L404.983,543.873C404.309,544.546 403.394,544.925 402.442,544.925C400.47,544.925 398.848,543.303 398.848,541.331C398.848,540.378 399.227,539.464 399.9,538.79L403.384,535.307C403.053,535.427 402.703,535.488 402.351,535.488C400.692,535.488 399.326,534.122 399.326,532.462C399.326,531.66 399.645,530.889 400.213,530.322L404.189,526.346L403.971,526.128L396.828,533.271C396.154,533.945 395.239,534.323 394.286,534.323C392.315,534.323 390.692,532.701 390.692,530.729C390.692,529.777 391.071,528.862 391.745,528.188L394.912,525.021C394.345,525.588 393.574,525.908 392.772,525.908C391.111,525.908 389.744,524.541 389.744,522.88C389.744,522.077 390.063,521.307 390.631,520.739L395.344,516.027C399.554,514.895 403.895,514.322 408.255,514.322C435.549,514.322 458.009,536.782 458.009,564.076C458.009,569.034 457.268,573.965 455.81,578.703L455.81,578.703Z" style="fill:rgb(230,230,230);fill-rule:nonzero;"/>
    </g>
    <g transform="matrix(1,0,0,1,-153.846,-158.537)">
        <path d="M401.124,542.649C400.45,541.976 400.071,541.061 400.071,540.108C400.071,539.155 400.45,538.24 401.124,537.567L399.798,538.892C399.125,539.566 398.746,540.48 398.746,541.433C398.746,543.405 400.368,545.027 402.34,545.027C403.293,545.027 404.207,544.648 404.881,543.974L406.206,542.649C405.533,543.323 404.618,543.702 403.665,543.702C402.712,543.702 401.797,543.323 401.124,542.649Z" style="fill-opacity:0.2;fill-rule:nonzero;"/>
    </g>
    <g transform="matrix(1,0,0,1,-153.846,-158.537)">
        <path d="M406.221,547.746C405.547,547.073 405.168,546.158 405.168,545.205C405.168,544.252 405.547,543.337 406.221,542.664L404.895,543.989C404.222,544.663 403.843,545.577 403.843,546.53C403.843,548.502 405.465,550.124 407.437,550.124C408.39,550.124 409.304,549.745 409.978,549.071L411.303,547.746C410.63,548.42 409.715,548.799 408.762,548.799C407.809,548.799 406.894,548.42 406.221,547.746Z" style="fill-opacity:0.2;fill-rule:nonzero;"/>
    </g>
    <g transform="matrix(1,0,0,1,-153.846,-158.537)">
        <path d="M404.607,534.083C404.276,534.203 403.927,534.265 403.575,534.265C401.915,534.265 400.549,532.899 400.549,531.239C400.549,530.436 400.869,529.666 401.437,529.098L400.111,530.424C399.543,530.991 399.224,531.762 399.224,532.564C399.224,534.224 400.59,535.59 402.249,535.59C402.601,535.59 402.951,535.529 403.282,535.408L404.607,534.083Z" style="fill-opacity:0.2;fill-rule:nonzero;"/>
    </g>
    <g transform="matrix(0.707107,-0.707107,0.707107,0.707107,-410.881,290.831)">
        <rect x="412.98" y="534.943" width="1.874" height="0.02" style="fill-opacity:0.2;"/>
    </g>
    <g transform="matrix(1,0,0,1,-153.846,-158.537)">
        <path d="M396.136,523.798C395.568,524.365 394.798,524.684 393.995,524.684C392.334,524.684 390.967,523.318 390.967,521.657C390.967,520.854 391.287,520.084 391.854,519.516L390.529,520.841C389.961,521.409 389.642,522.179 389.642,522.982C389.642,524.643 391.009,526.009 392.67,526.009C393.472,526.009 394.243,525.69 394.81,525.123L396.136,523.798Z" style="fill-opacity:0.2;fill-rule:nonzero;"/>
    </g>
    <g transform="matrix(0.707107,-0.707107,0.707107,0.707107,-407.039,281.554)">
        <rect x="403.703" y="525.522" width="1.874" height="0.309" style="fill-opacity:0.2;"/>
    </g>
    <g transform="matrix(1,0,0,1,-153.846,-158.537)">
        <path d="M392.968,532.048C392.295,531.374 391.916,530.459 391.916,529.506C391.916,528.553 392.295,527.639 392.968,526.965L391.643,528.29C390.969,528.964 390.591,529.879 390.591,530.831C390.591,532.803 392.213,534.425 394.185,534.425C395.137,534.425 396.052,534.046 396.726,533.373L398.051,532.048C397.377,532.721 396.463,533.1 395.51,533.1C394.557,533.1 393.642,532.721 392.968,532.048Z" style="fill-opacity:0.2;fill-rule:nonzero;"/>
    </g>
    <g transform="matrix(1,0,0,1,-153.846,-158.537)">
        <path d="M415.395,556.921C414.721,556.247 414.342,555.332 414.342,554.379C414.342,553.427 414.721,552.512 415.395,551.838L414.07,553.163C413.396,553.837 413.017,554.752 413.017,555.705C413.017,557.676 414.64,559.299 416.611,559.299C417.564,559.299 418.479,558.92 419.153,558.246L420.478,556.921C419.804,557.595 418.889,557.974 417.937,557.974C416.984,557.974 416.069,557.595 415.395,556.921Z" style="fill-opacity:0.2;fill-rule:nonzero;"/>
    </g>
    <g transform="matrix(1,0,0,1,-153.846,-158.537)">
        <path d="M446.399,563.241C446.629,563.011 446.758,562.7 446.758,562.375C446.758,561.702 446.205,561.149 445.533,561.149C445.208,561.149 444.896,561.278 444.666,561.508L443.341,562.833C443.571,562.604 443.883,562.474 444.207,562.474C444.88,562.474 445.433,563.028 445.433,563.7C445.433,564.025 445.304,564.337 445.074,564.566L446.399,563.241Z" style="fill-opacity:0.2;fill-rule:nonzero;"/>
    </g>
    <g transform="matrix(1,0,0,1,-153.846,-158.537)">
        <path d="M419.786,547.448C419.218,548.015 418.448,548.335 417.645,548.335C415.985,548.335 414.619,546.969 414.619,545.309C414.619,544.941 414.686,544.577 414.816,544.233L413.491,545.559C413.36,545.902 413.294,546.266 413.294,546.634C413.294,548.294 414.66,549.66 416.32,549.66C417.122,549.66 417.893,549.341 418.461,548.773L419.786,547.448Z" style="fill-opacity:0.2;fill-rule:nonzero;"/>
    </g>
    <g transform="matrix(1,0,0,1,-153.846,-158.537)">
        <path d="M433.65,568.039C433.082,567.472 432.763,566.701 432.763,565.899C432.763,565.096 433.082,564.325 433.65,563.758L438.587,558.297L437.261,559.622L432.324,565.083C431.757,565.651 431.438,566.421 431.438,567.224C431.438,568.885 432.804,570.251 434.465,570.251C435.268,570.251 436.038,569.932 436.606,569.365L441.907,564.268L443.232,562.942L437.931,568.039C437.364,568.607 436.593,568.926 435.79,568.926C434.988,568.926 434.217,568.607 433.65,568.039Z" style="fill-opacity:0.2;fill-rule:nonzero;"/>
    </g>
    <g transform="matrix(1,0,0,1,-153.846,-158.537)">
        <path d="M446.902,583.33C446.319,582.748 445.999,581.951 446.018,581.128L445.351,581.794C444.677,582.468 443.763,582.847 442.81,582.847C440.838,582.847 439.216,581.224 439.216,579.253C439.216,578.3 439.595,577.385 440.269,576.711L440.824,576.156C439.228,576.071 437.96,574.735 437.96,573.136C437.96,572.334 438.28,571.563 438.848,570.996L444.965,564.675L443.64,566.001L437.523,572.321C436.955,572.888 436.635,573.659 436.635,574.462C436.635,576.06 437.903,577.397 439.499,577.481L438.943,578.037C438.27,578.71 437.891,579.625 437.891,580.578C437.891,582.55 439.513,584.172 441.485,584.172C442.437,584.172 443.352,583.793 444.026,583.119L444.693,582.453C444.692,582.474 444.692,582.496 444.692,582.518C444.692,584.178 446.058,585.543 447.717,585.543C448.52,585.543 449.291,585.224 449.858,584.656L451.183,583.33C450.616,583.898 449.845,584.217 449.042,584.217C448.24,584.217 447.469,583.898 446.902,583.33Z" style="fill-opacity:0.2;fill-rule:nonzero;"/>
    </g>
    <g transform="matrix(1,0,0,1,-153.846,-158.537)">
        <path d="M426.106,560.496C426.121,560.374 426.128,560.252 426.128,560.13C426.128,558.473 424.765,557.11 423.108,557.11C422.986,557.11 422.863,557.117 422.742,557.132C422.298,556.688 422.004,556.117 421.9,555.499L420.575,556.824C422.865,557.466 424.539,559.455 424.781,561.821C425.348,562.389 426.119,562.708 426.922,562.708C427.724,562.708 428.495,562.389 429.062,561.821L434.421,556.782L435.747,555.457L430.388,560.496C429.82,561.064 429.049,561.383 428.247,561.383C427.444,561.383 426.673,561.064 426.106,560.496Z" style="fill-opacity:0.2;fill-rule:nonzero;"/>
    </g>
    <g transform="matrix(1,0,0,1,-153.846,-158.537)">
        <path d="M441.244,555.639C441.624,555.263 441.838,554.749 441.838,554.214C441.838,553.112 440.932,552.205 439.83,552.205C439.295,552.205 438.781,552.419 438.404,552.799L437.079,554.125C437.456,553.745 437.969,553.531 438.505,553.531C439.606,553.531 440.513,554.437 440.513,555.539C440.513,556.074 440.299,556.588 439.919,556.965L441.244,555.639Z" style="fill-opacity:0.2;fill-rule:nonzero;"/>
    </g>
    <g transform="matrix(0.707107,0.707107,-0.707107,0.707107,344.967,-296.221)">
        <rect x="415.246" y="531.332" width="0.721" height="3.892" style="fill:rgb(63,61,86);"/>
    </g>
    <g transform="matrix(0.707107,0.707107,-0.707107,0.707107,353.988,-301.69)">
        <rect x="426.357" y="539.487" width="0.721" height="3.892" style="fill:rgb(63,61,86);"/>
    </g>
    <g transform="matrix(0.707107,0.707107,-0.707107,0.707107,352.967,-311.225)">
        <rect x="437.357" y="533.487" width="0.721" height="3.892" style="fill:rgb(63,61,86);"/>
    </g>
    <g transform="matrix(0.707107,0.707107,-0.707107,0.707107,346.231,-285.817)">
        <rect x="403.319" y="538.06" width="0.721" height="3.892" style="fill:rgb(63,61,86);"/>
    </g>
    <g transform="matrix(0.179164,0.983819,-0.983819,0.179164,744.171,-125.083)">
        <rect x="428.6" y="552.943" width="0.721" height="3.892" style="fill:rgb(63,61,86);"/>
    </g>
    <g transform="matrix(0.179164,0.983819,-0.983819,0.179164,750.417,-146.57)">
        <rect x="444.6" y="545.943" width="0.721" height="3.892" style="fill:rgb(63,61,86);"/>
    </g>
    <g transform="matrix(0.993276,-0.115771,0.115771,0.993276,-211.942,-107.75)">
        <rect x="407.804" y="523.584" width="0.721" height="3.892" style="fill:rgb(63,61,86);"/>
    </g>
    <g transform="matrix(0.993276,-0.115771,0.115771,0.993276,-211.681,-108.748)">
        <rect x="399.343" y="520.832" width="0.721" height="3.892" style="fill:rgb(63,61,86);"/>
    </g>
    <g transform="matrix(0.707107,0.707107,-0.707107,0.707107,344.171,-303.476)">
        <rect x="423.605" y="526.744" width="0.721" height="3.892" style="fill:white;"/>
    </g>
    <g transform="matrix(0.707107,0.707107,-0.707107,0.707107,360.222,-314.224)">
        <rect x="444.605" y="540.744" width="0.721" height="3.892" style="fill:white;"/>
    </g>
    <g transform="matrix(0.707107,0.707107,-0.707107,0.707107,376.707,-314.023)">
        <rect x="452.605" y="560.744" width="0.721" height="3.892" style="fill:white;"/>
    </g>
    <g transform="matrix(0.707107,0.707107,-0.707107,0.707107,336.075,-283.521)">
        <rect x="395.469" y="526.948" width="0.721" height="3.892" style="fill:white;"/>
    </g>
    <g transform="matrix(0.314921,0.949118,-0.949118,0.314921,659.644,-193.109)">
        <rect x="430.333" y="544.278" width="0.721" height="3.892" style="fill:white;"/>
    </g>
    <g transform="matrix(0.314921,0.949118,-0.949118,0.314921,658.505,-175.831)">
        <rect x="417.794" y="552.127" width="0.721" height="3.892" style="fill:white;"/>
    </g>
    <g transform="matrix(0.998197,-0.060017,0.060017,0.998197,-185.691,-132.443)">
        <rect x="418.1" y="541.22" width="0.721" height="3.892" style="fill:white;"/>
    </g>
    <g transform="matrix(0.998197,-0.060017,0.060017,0.998197,-184.366,-132.373)">
        <rect x="419.935" y="519.201" width="0.721" height="3.892" style="fill:white;"/>
    </g>
    <g transform="matrix(0.707107,0.707107,-0.707107,0.707107,350.114,-300.085)">
        <rect x="422.484" y="535.613" width="0.721" height="3.892" style="fill:rgb(255,101,132);"/>
    </g>
    <g transform="matrix(0.707107,0.707107,-0.707107,0.707107,381.185,-307.097)">
        <rect x="446.484" y="569.613" width="0.721" height="3.892" style="fill:rgb(255,101,132);"/>
    </g>
    <g transform="matrix(0.707107,0.707107,-0.707107,0.707107,370.336,-314.905)">
        <rect x="450.484" y="552.613" width="0.721" height="3.892" style="fill:rgb(255,101,132);"/>
    </g>
    <g transform="matrix(0.965926,0.258819,-0.258819,0.965926,-2.09876,-246.246)">
        <rect x="408.62" y="530.516" width="0.721" height="3.892" style="fill:rgb(255,101,132);"/>
    </g>
    <g transform="matrix(0.965926,0.258819,-0.258819,0.965926,-1.57758,-252.243)">
        <rect x="431.658" y="529.497" width="0.721" height="3.892" style="fill:rgb(255,101,132);"/>
    </g>
    <g transform="matrix(0.965926,0.258819,-0.258819,0.965926,-4.07719,-251.606)">
        <rect x="427.988" y="520.322" width="0.721" height="3.892" style="fill:rgb(255,101,132);"/>
    </g>
    <g transform="matrix(0.707107,0.707107,-0.707107,0.707107,333.118,-294.12)">
        <rect x="406.785" y="518.08" width="0.721" height="3.892" style="fill:rgb(255,101,132);"/>
    </g>
    <g transform="matrix(1,0,0,1,-153.846,-158.537)">
        <path d="M929.226,365.467C929.226,361.078 925.615,357.467 921.226,357.467C916.838,357.467 913.226,361.078 913.226,365.467L913.226,724.114C913.226,728.502 916.838,732.114 921.226,732.114C925.615,732.114 929.226,728.502 929.226,724.114L929.226,367.79" style="fill:rgb(63,61,86);fill-rule:nonzero;"/>
    </g>
    <g transform="matrix(1,0,0,1,-153.846,-158.537)">
        <path d="M1031.28,384.5C1010.43,345.193 969.43,320.524 924.939,320.524C858.91,320.524 804.576,374.857 804.576,440.886C804.576,453.062 806.424,465.168 810.056,476.79L824.986,476.79C827.986,476.79 830.446,480.13 830.446,484.22L833.186,484.22C836.196,484.22 838.656,487.56 838.656,491.65C838.656,495.73 836.196,499.08 833.186,499.08L830.446,499.08C830.44,499.701 830.377,500.321 830.256,500.93L842.756,500.93C845.766,500.93 848.226,504.28 848.226,508.36C848.226,512.45 845.766,515.79 842.756,515.79L830.816,515.79C853.636,544.392 888.297,561.08 924.886,561.08C990.903,561.08 1045.23,506.756 1045.23,440.74C1045.23,421.138 1040.44,401.83 1031.28,384.5L1031.28,384.5ZM949.416,484.24C941.936,488.464 933.487,490.677 924.896,490.66C923.176,490.66 921.458,490.573 919.746,490.4C894.487,487.761 875.078,466.218 875.078,440.821C875.078,413.475 897.581,390.972 924.927,390.972C952.274,390.972 974.776,413.475 974.776,440.821C974.776,458.787 965.064,475.415 949.416,484.24Z" style="fill:rgb(234,88,11);fill-rule:nonzero;"/>
    </g>
    <g transform="matrix(1,0,0,1,-153.846,-158.537)">
        <path d="M847.899,505.862C848.116,505.046 848.226,504.206 848.226,503.362C848.226,499.276 845.765,495.933 842.757,495.933L837.64,495.933C836.862,497.729 835.139,498.944 833.186,499.076L830.451,499.076C830.445,499.7 830.38,500.322 830.255,500.933L842.757,500.933C845.119,500.933 847.138,502.998 847.899,505.862Z" style="fill-opacity:0.2;fill-rule:nonzero;"/>
    </g>
    <g transform="matrix(1,0,0,1,-153.846,-158.537)">
        <path d="M833.186,484.219C835.548,484.219 837.567,486.284 838.327,489.147C838.545,488.332 838.655,487.491 838.655,486.647C838.655,482.562 836.194,479.219 833.186,479.219L830.451,479.219C830.451,475.133 827.99,471.79 824.981,471.79L810.056,471.79C806.652,460.882 804.822,449.544 804.62,438.118C804.6,439.008 804.575,439.896 804.575,440.79C804.564,452.999 806.412,465.138 810.056,476.79L824.981,476.79C827.99,476.79 830.451,480.133 830.451,484.219L833.186,484.219Z" style="fill-opacity:0.2;fill-rule:nonzero;"/>
    </g>
    <g transform="matrix(1,0,0,1,-153.846,-158.537)">
        <path d="M924.901,556.116C890.572,556.153 857.825,541.459 835.031,515.79L830.812,515.79C853.627,544.413 888.3,561.116 924.903,561.116C990.91,561.116 1045.23,506.8 1045.23,440.792C1045.23,440.792 1045.23,440.791 1045.23,440.79C1045.23,440.038 1045.2,439.291 1045.19,438.542C1043.71,503.494 989.87,556.115 924.901,556.116Z" style="fill-opacity:0.2;fill-rule:nonzero;"/>
    </g>
    <g transform="matrix(1,0,0,1,-153.846,-158.537)">
        <path d="M924.896,380.92C892.056,380.926 865.036,407.95 865.036,440.79C865.036,473.634 892.063,500.66 924.906,500.66C957.75,500.66 984.776,473.634 984.776,440.79C984.738,407.957 957.729,380.954 924.896,380.92ZM949.416,484.24C941.936,488.464 933.487,490.677 924.896,490.66C923.176,490.66 921.458,490.573 919.746,490.4C894.487,487.761 875.078,466.218 875.078,440.821C875.078,413.475 897.581,390.972 924.927,390.972C952.274,390.972 974.776,413.475 974.776,440.821C974.776,458.787 965.064,475.415 949.416,484.24Z" style="fill-opacity:0.2;fill-rule:nonzero;"/>
    </g>
    <g transform="matrix(1,0,0,1,-153.846,-158.537)">
        <path d="M1031.28,382.502L1031.28,402.518C1031.28,402.52 1031.28,402.522 1031.28,402.524C1031.28,406.539 1027.97,409.842 1023.96,409.842C1021.96,409.842 1020.05,409.027 1018.67,407.586L1018.67,409.867C1018.67,414.637 1014.75,418.562 1009.98,418.562C1005.21,418.562 1001.28,414.637 1001.28,409.867L1001.28,407.966C999.939,409.174 998.195,409.842 996.389,409.842C992.376,409.842 989.074,406.54 989.074,402.527C989.074,402.524 989.074,402.521 989.074,402.518L988.726,381.243L988.726,376.336C988.726,374.71 987.387,373.371 985.761,373.371C984.135,373.371 982.796,374.71 982.796,376.336L982.796,381.243L982.448,399.03C982.448,403.048 979.141,406.355 975.124,406.355C971.106,406.355 967.799,403.048 967.799,399.03L966.903,381.243L966.903,372.151C966.903,369.486 964.71,367.292 962.045,367.292C959.379,367.292 957.186,369.486 957.186,372.151L957.186,381.243L956.639,399.03C956.639,399.032 956.639,399.034 956.639,399.036C956.639,403.051 953.335,406.355 949.32,406.355C947.073,406.355 944.946,405.319 943.56,403.55C941.168,406.609 936.734,407.253 933.571,405.001L933.571,409.867C933.571,414.637 929.646,418.562 924.876,418.562C920.106,418.562 916.181,414.637 916.181,409.867L916.181,394.845C916.181,394.846 916.181,394.847 916.181,394.848C916.181,398.864 912.876,402.169 908.86,402.169C905.983,402.169 903.361,400.473 902.182,397.848L902.182,409.867C902.177,414.633 898.253,418.552 893.487,418.552C888.721,418.552 884.797,414.633 884.792,409.867L884.792,381.243L884.743,381.243L884.743,409.867C884.743,414.637 880.818,418.562 876.048,418.562C871.279,418.562 867.354,414.637 867.354,409.867L867.354,397.949C866.152,400.52 863.56,402.169 860.723,402.169C856.707,402.169 853.403,398.865 853.403,394.85C853.403,394.848 853.403,394.847 853.403,394.845L853.403,381.243L852.656,381.243L852.656,405.682C852.656,410.451 848.731,414.376 843.962,414.376C839.192,414.376 835.267,410.451 835.267,405.682L835.267,394.845C835.267,398.863 831.961,402.169 827.943,402.169C823.925,402.169 820.618,398.863 820.618,394.845L820.618,378.722C842.082,341.485 881.922,318.465 924.902,318.465C969.419,318.465 1010.44,343.161 1031.28,382.502L1031.28,382.502Z" style="fill:rgb(230,230,230);fill-rule:nonzero;"/>
    </g>
    <g transform="matrix(1,0,0,1,-153.846,-158.537)">
        <path d="M876.049,414.376L876.048,414.376C871.278,414.376 867.354,410.452 867.354,405.682C867.354,405.682 867.354,405.682 867.354,405.682L867.354,410.216C867.354,414.985 871.279,418.91 876.049,418.91C880.818,418.91 884.743,414.985 884.743,410.216L884.743,405.682C884.743,405.682 884.743,405.682 884.743,405.682C884.743,410.452 880.819,414.376 876.049,414.376Z" style="fill-opacity:0.2;fill-rule:nonzero;"/>
    </g>
    <g transform="matrix(1,0,0,1,-153.846,-158.537)">
        <path d="M893.488,414.376L893.486,414.376C888.717,414.376 884.792,410.452 884.792,405.682C884.792,405.682 884.792,405.682 884.792,405.682L884.792,410.216C884.792,414.985 888.717,418.91 893.487,418.91C898.257,418.91 902.182,414.985 902.182,410.216L902.182,405.682C902.182,405.682 902.182,405.682 902.182,405.682C902.182,410.452 898.257,414.376 893.488,414.376Z" style="fill-opacity:0.2;fill-rule:nonzero;"/>
    </g>
    <g transform="matrix(1,0,0,1,-153.846,-158.537)">
        <path d="M867.354,393.764C866.152,396.334 863.56,397.984 860.723,397.984C856.707,397.984 853.403,394.68 853.403,390.664C853.403,390.663 853.403,390.662 853.403,390.66L853.403,395.194C853.403,395.196 853.403,395.197 853.403,395.198C853.403,399.214 856.707,402.518 860.723,402.518C863.56,402.518 866.152,400.868 867.354,398.298L867.354,393.764Z" style="fill-opacity:0.2;fill-rule:nonzero;"/>
    </g>
    <rect x="730.898" y="218.521" width="0.049" height="4.534" style="fill-opacity:0.2;"/>
    <g transform="matrix(1,0,0,1,-153.846,-158.537)">
        <path d="M835.267,390.66C835.267,394.678 831.961,397.984 827.943,397.984C823.925,397.984 820.619,394.678 820.619,390.66L820.619,395.194C820.619,399.212 823.925,402.518 827.943,402.518C831.961,402.518 835.267,399.212 835.267,395.194L835.267,390.66Z" style="fill-opacity:0.2;fill-rule:nonzero;"/>
    </g>
    <rect x="698.811" y="218.521" width="0.746" height="4.534" style="fill-opacity:0.2;"/>
    <g transform="matrix(1,0,0,1,-153.846,-158.537)">
        <path d="M843.962,410.191L843.961,410.191C839.192,410.191 835.267,406.266 835.267,401.497C835.267,401.497 835.267,401.497 835.267,401.496L835.267,406.03C835.267,410.8 839.192,414.725 843.962,414.725C848.732,414.725 852.657,410.8 852.657,406.03L852.657,401.496C852.657,401.497 852.657,401.497 852.657,401.497C852.657,406.266 848.732,410.191 843.962,410.191Z" style="fill-opacity:0.2;fill-rule:nonzero;"/>
    </g>
    <g transform="matrix(1,0,0,1,-153.846,-158.537)">
        <path d="M924.877,414.376L924.876,414.376C920.106,414.376 916.181,410.452 916.181,405.682C916.181,405.682 916.181,405.682 916.181,405.682L916.181,410.216C916.181,414.985 920.106,418.91 924.876,418.91C929.646,418.91 933.571,414.985 933.571,410.216L933.571,405.682C933.571,405.682 933.571,405.682 933.571,405.682C933.571,410.452 929.646,414.376 924.877,414.376Z" style="fill-opacity:0.2;fill-rule:nonzero;"/>
    </g>
    <g transform="matrix(1,0,0,1,-153.846,-158.537)">
        <path d="M988.726,372.151C988.726,370.525 987.387,369.186 985.761,369.186C984.135,369.186 982.797,370.525 982.797,372.151L982.797,376.685C982.797,375.059 984.135,373.72 985.761,373.72C987.387,373.72 988.726,375.059 988.726,376.685C988.726,376.685 988.726,372.151 988.726,372.151Z" style="fill-opacity:0.2;fill-rule:nonzero;"/>
    </g>
    <g transform="matrix(1,0,0,1,-153.846,-158.537)">
        <path d="M916.181,390.66C916.181,390.661 916.181,390.662 916.181,390.663C916.181,394.679 912.877,397.984 908.86,397.984C905.983,397.984 903.361,396.288 902.182,393.663L902.182,398.197C903.361,400.822 905.983,402.518 908.86,402.518C912.877,402.518 916.181,399.213 916.181,395.197C916.181,395.196 916.181,395.195 916.181,395.194L916.181,390.66Z" style="fill-opacity:0.2;fill-rule:nonzero;"/>
    </g>
    <g transform="matrix(1,0,0,1,-153.846,-158.537)">
        <path d="M975.124,402.169L975.123,402.169C971.105,402.169 967.799,398.864 967.799,394.846C967.799,394.846 967.799,394.846 967.799,394.845L966.903,377.058L966.903,381.592L967.799,399.379C967.799,403.397 971.106,406.703 975.124,406.703C979.142,406.703 982.448,403.397 982.448,399.379L982.797,381.592L982.797,377.058L982.448,394.845C982.448,394.846 982.448,394.846 982.448,394.846C982.448,398.864 979.142,402.169 975.124,402.169Z" style="fill-opacity:0.2;fill-rule:nonzero;"/>
    </g>
    <g transform="matrix(1,0,0,1,-153.846,-158.537)">
        <path d="M1023.95,405.657C1021.96,405.658 1020.05,404.842 1018.67,403.401L1018.67,405.682C1018.67,410.451 1014.75,414.376 1009.98,414.376C1005.21,414.376 1001.28,410.451 1001.28,405.682L1001.28,403.781C999.939,404.988 998.195,405.657 996.389,405.657C992.376,405.657 989.074,402.355 989.074,398.342C989.074,398.339 989.074,398.336 989.074,398.333L988.726,377.058L988.726,381.592L989.074,402.867C989.074,402.87 989.074,402.873 989.074,402.876C989.074,406.889 992.376,410.191 996.389,410.191C998.195,410.191 999.939,409.522 1001.28,408.315L1001.28,410.216C1001.28,414.985 1005.21,418.91 1009.98,418.91C1014.75,418.91 1018.67,414.985 1018.67,410.216L1018.67,407.935C1020.05,409.375 1021.96,410.191 1023.96,410.191C1027.97,410.191 1031.28,406.887 1031.28,402.872C1031.28,402.871 1031.28,402.869 1031.28,402.867L1031.28,398.333C1031.28,398.333 1031.28,398.334 1031.28,398.334C1031.28,402.351 1027.97,405.657 1023.95,405.657C1023.95,405.657 1023.95,405.657 1023.95,405.657Z" style="fill-opacity:0.2;fill-rule:nonzero;"/>
    </g>
    <g transform="matrix(1,0,0,1,-153.846,-158.537)">
        <path d="M949.315,402.169C947.069,402.17 944.944,401.134 943.56,399.365C941.168,402.423 936.734,403.067 933.571,400.816L933.571,405.35C936.734,407.601 941.168,406.957 943.56,403.899C944.946,405.668 947.073,406.703 949.32,406.703C953.335,406.703 956.639,403.4 956.639,399.385C956.639,399.383 956.639,399.381 956.639,399.379L957.186,381.592L957.186,377.058L956.639,394.845C956.639,394.846 956.639,394.846 956.639,394.846C956.639,398.864 953.333,402.169 949.316,402.169C949.315,402.169 949.315,402.169 949.315,402.169Z" style="fill-opacity:0.2;fill-rule:nonzero;"/>
    </g>
    <g transform="matrix(1,0,0,1,-153.846,-158.537)">
        <path d="M966.903,367.966C966.903,365.3 964.71,363.107 962.045,363.107C959.38,363.107 957.186,365.3 957.186,367.966L957.186,372.5C957.186,369.834 959.38,367.641 962.045,367.641C964.71,367.641 966.903,369.834 966.903,372.5C966.903,372.5 966.903,367.966 966.903,367.966Z" style="fill-opacity:0.2;fill-rule:nonzero;"/>
    </g>
    <rect x="730.074" y="210.325" width="1.744" height="9.417" style="fill:rgb(63,61,86);"/>
    <rect x="763.033" y="205.268" width="1.744" height="9.417" style="fill:rgb(63,61,86);"/>
    <rect x="855.108" y="210.848" width="1.744" height="9.417" style="fill:rgb(63,61,86);"/>
    <rect x="721.181" y="242.237" width="1.744" height="9.417" style="fill:rgb(63,61,86);"/>
    <g transform="matrix(0.822354,0.568977,-0.568977,0.822354,234.55,-627.123)">
        <rect x="943.734" y="382.987" width="1.744" height="9.417" style="fill:rgb(63,61,86);"/>
    </g>
    <g transform="matrix(0.62049,-0.784214,0.784214,0.62049,-120.468,656.528)">
        <rect x="857.937" y="368.339" width="1.744" height="9.417" style="fill:rgb(63,61,86);"/>
    </g>
    <g transform="matrix(0.62049,-0.784214,0.784214,0.62049,-53.9294,723.572)">
        <rect x="960.475" y="333.113" width="1.744" height="9.417" style="fill:rgb(63,61,86);"/>
    </g>
    <g transform="matrix(0.62049,-0.78421,0.78421,0.62049,-135.406,645.191)">
        <rect x="838.755" y="378.104" width="1.744" height="9.417" style="fill:rgb(63,61,86);"/>
    </g>
    <rect x="736.527" y="188.178" width="1.744" height="9.417" style="fill:white;"/>
    <rect x="688.745" y="236.657" width="1.744" height="9.417" style="fill:white;"/>
    <rect x="770.357" y="174.576" width="1.744" height="9.417" style="fill:white;"/>
    <rect x="854.062" y="233.518" width="1.744" height="9.417" style="fill:white;"/>
    <g transform="matrix(0.89381,0.448445,-0.448445,0.89381,111.086,-537.543)">
        <rect x="931.876" y="365.2" width="1.744" height="9.417" style="fill:white;"/>
    </g>
    <g transform="matrix(0.89381,0.448445,-0.448445,0.89381,125.874,-530.242)">
        <rect x="923.854" y="400.077" width="1.744" height="9.417" style="fill:white;"/>
    </g>
    <g transform="matrix(0.89381,0.448445,-0.448445,0.89381,129.058,-575.076)">
        <rect x="1020.12" y="384.382" width="1.744" height="9.417" style="fill:white;"/>
    </g>
    <g transform="matrix(0.663394,-0.748271,0.748271,0.663394,-137.217,649.634)">
        <rect x="905.718" y="380.894" width="1.744" height="9.417" style="fill:white;"/>
    </g>
    <g transform="matrix(0.663394,-0.748271,0.748271,0.663394,-118.306,610.062)">
        <rect x="871.19" y="340.088" width="1.744" height="9.417" style="fill:white;"/>
    </g>
    <g transform="matrix(0.663394,-0.748271,0.748271,0.663394,-91.4254,701.206)">
        <rect x="985.935" y="355.783" width="1.744" height="9.417" style="fill:white;"/>
    </g>
    <g transform="matrix(0.663394,-0.748271,0.748271,0.663394,-82.6648,659.297)">
        <rect x="943.734" y="325.091" width="1.744" height="9.417" style="fill:white;"/>
    </g>
    <rect x="749.78" y="205.268" width="1.744" height="9.417" style="fill:rgb(255,101,132);"/>
    <g transform="matrix(0.920478,0.390794,-0.390794,0.920478,71.8212,-520.043)">
        <rect x="1000.24" y="369.036" width="1.744" height="9.417" style="fill:rgb(255,101,132);"/>
    </g>
    <g transform="matrix(0.866025,-0.5,0.5,0.866025,-228.767,328.875)">
        <rect x="871.19" y="378.802" width="1.744" height="9.417" style="fill:rgb(255,101,132);"/>
    </g>
    <g transform="matrix(0.866025,-0.5,0.5,0.866025,-212.09,377.861)">
        <rect x="970.938" y="372.175" width="1.744" height="9.417" style="fill:rgb(255,101,132);"/>
    </g>
    <g transform="matrix(0.866025,-0.5,0.5,0.866025,-203.143,342.195)">
        <rect x="908.857" y="337.647" width="1.744" height="9.417" style="fill:rgb(255,101,132);"/>
    </g>
    <g transform="matrix(0.866025,-0.5,0.5,0.866025,-192.365,378.931)">
        <rect x="982.797" y="335.903" width="1.744" height="9.417" style="fill:rgb(255,101,132);"/>
    </g>
    <g transform="matrix(0.866025,-0.5,0.5,0.866025,-201.378,329.947)">
        <rect x="886.885" y="328.23" width="1.744" height="9.417" style="fill:rgb(255,101,132);"/>
    </g>
    <rect x="793.376" y="186.434" width="1.744" height="9.417" style="fill:rgb(255,101,132);"/>
    <rect x="692.93" y="202.129" width="1.744" height="9.417" style="fill:rgb(255,101,132);"/>
    <circle cx="354.258" cy="504.177" r="42.012" style="fill:rgb(47,46,65);"/>
    <g transform="matrix(-0.984006,0.178133,-0.178133,-0.984006,1020.28,1144.32)">
        <rect x="522.191" y="692.702" width="12.763" height="22.867" style="fill:rgb(47,46,65);"/>
    </g>
    <g transform="matrix(-0.984006,0.178133,-0.178133,-0.984006,971.251,1157.81)">
        <rect x="497.073" y="697.249" width="12.763" height="22.867" style="fill:rgb(47,46,65);"/>
    </g>
    <g transform="matrix(0.763108,-0.646271,0.646271,0.763108,-501.718,337.949)">
        <ellipse cx="503.301" cy="722.762" rx="10.636" ry="3.989" style="fill:rgb(47,46,65);"/>
    </g>
    <g transform="matrix(0.763108,-0.646271,0.646271,0.763108,-493.015,352.789)">
        <ellipse cx="527.896" cy="718.31" rx="10.636" ry="3.989" style="fill:rgb(47,46,65);"/>
    </g>
    <circle cx="351.316" cy="493.901" r="14.359" style="fill:white;"/>
    <circle cx="345.415" cy="488.754" r="4.786" style="fill:rgb(63,61,86);"/>
    <g transform="matrix(1,0,0,1,-153.846,-158.537)">
        <path d="M541.245,617.009C541.877,601.456 528.472,588.282 511.305,587.584C494.137,586.887 479.708,598.93 479.076,614.484C478.444,630.038 490.378,633.572 507.545,634.269C524.713,634.966 540.614,632.563 541.245,617.009Z" style="fill:rgb(207,204,224);fill-rule:nonzero;"/>
    </g>
    <g transform="matrix(0.223422,-0.974722,0.974722,0.223422,-427.891,807.616)">
        <ellipse cx="469.311" cy="655.06" rx="6.594" ry="21.006" style="fill:rgb(47,46,65);"/>
    </g>
    <g transform="matrix(0.223422,-0.974722,0.974722,0.223422,-377.215,898.651)">
        <ellipse cx="551.78" cy="668.775" rx="6.594" ry="21.006" style="fill:rgb(47,46,65);"/>
    </g>
    <g transform="matrix(1,0,0,1,-153.846,-158.537)">
        <path d="M519.642,679.271C519.745,679.835 519.796,680.408 519.796,680.982C519.796,686.233 515.475,690.554 510.224,690.554C505.611,690.554 501.622,687.22 500.804,682.681C499.862,677.479 503.884,675.638 509.086,674.696C514.288,673.755 518.7,674.069 519.642,679.271Z" style="fill:white;fill-rule:nonzero;"/>
    </g>
    <g transform="matrix(0.357029,-0.934093,0.934093,0.357029,-158.308,864.076)">
        <ellipse cx="740.583" cy="514.548" rx="21.534" ry="6.76" style="fill:rgb(47,46,65);"/>
    </g>
    <circle cx="561.649" cy="512.284" r="43.067" style="fill:rgb(47,46,65);"/>
    <rect x="542.023" y="546.083" width="13.084" height="23.442" style="fill:rgb(47,46,65);"/>
    <rect x="568.191" y="546.083" width="13.084" height="23.442" style="fill:rgb(47,46,65);"/>
    <ellipse cx="552.927" cy="569.798" rx="10.903" ry="4.089" style="fill:rgb(47,46,65);"/>
    <ellipse cx="579.094" cy="569.252" rx="10.903" ry="4.089" style="fill:rgb(47,46,65);"/>
    <circle cx="562.739" cy="501.381" r="14.719" style="fill:white;"/>
    <circle cx="562.739" cy="501.381" r="4.906" style="fill:rgb(63,61,86);"/>
    <g transform="matrix(1,0,0,1,-153.846,-158.537)">
        <path d="M673.718,630.769C670.241,615.195 681.357,599.459 698.547,595.62C715.737,591.782 732.491,601.295 735.968,616.869C739.446,632.443 728.053,638.187 710.864,642.025C693.674,645.864 677.196,646.343 673.718,630.769Z" style="fill:rgb(207,204,224);fill-rule:nonzero;"/>
    </g>
    <circle cx="546.93" cy="388.533" r="43.067" style="fill:rgb(47,46,65);"/>
    <rect x="527.304" y="422.333" width="13.084" height="23.442" style="fill:rgb(47,46,65);"/>
    <rect x="553.472" y="422.333" width="13.084" height="23.442" style="fill:rgb(47,46,65);"/>
    <ellipse cx="538.207" cy="446.047" rx="10.903" ry="4.089" style="fill:rgb(47,46,65);"/>
    <ellipse cx="564.375" cy="445.502" rx="10.903" ry="4.089" style="fill:rgb(47,46,65);"/>
    <circle cx="548.02" cy="377.63" r="14.719" style="fill:white;"/>
    <circle cx="548.02" cy="377.63" r="4.906" style="fill:rgb(63,61,86);"/>
    <g transform="matrix(1,0,0,1,-153.846,-158.537)">
        <path d="M658.999,507.019C655.521,491.445 666.638,475.708 683.827,471.87C701.017,468.032 717.772,477.545 721.249,493.119C724.727,508.693 713.334,514.436 696.144,518.275C678.954,522.113 662.476,522.593 658.999,507.019Z" style="fill:rgb(207,204,224);fill-rule:nonzero;"/>
    </g>
    <g transform="matrix(0.428529,-0.903528,0.903528,0.428529,-257.332,732.02)">
        <ellipse cx="652.267" cy="527.087" rx="6.76" ry="21.534" style="fill:rgb(47,46,65);"/>
    </g>
    <g transform="matrix(1,0,0,1,-153.846,-158.537)">
        <path d="M679.621,562.607C679.621,566.822 690.474,575.146 702.518,575.146C714.561,575.146 725.853,563.279 725.853,559.064C725.853,554.848 714.561,559.881 702.518,559.881C690.474,559.881 679.621,558.392 679.621,562.607Z" style="fill:white;fill-rule:nonzero;"/>
    </g>
    <circle cx="672.697" cy="441.69" r="6" style="fill:rgb(234,88,11);"/>
    <circle cx="689.04" cy="393.253" r="6" style="fill:rgb(234,88,11);"/>
    <circle cx="674.097" cy="368.495" r="6" style="fill:rgb(234,88,11);"/>
    <g transform="matrix(-0.26644,-0.96385,0.96385,-0.26644,171.681,1485.09)">
        <rect x="782.17" y="687.089" width="12.113" height="21.702" style="fill:rgb(47,46,65);"/>
    </g>
    <g transform="matrix(0.96385,-0.26644,0.26644,0.96385,-312.075,73.1928)">
        <ellipse cx="774.907" cy="699.004" rx="3.785" ry="10.094" style="fill:rgb(47,46,65);"/>
    </g>
    <g transform="matrix(0.134313,-0.990939,0.990939,0.134313,-78.2263,1236.02)">
        <ellipse cx="835.976" cy="654" rx="19.935" ry="6.258" style="fill:rgb(47,46,65);"/>
    </g>
    <circle cx="678.227" cy="532.784" r="39.871" style="fill:rgb(47,46,65);"/>
    <g transform="matrix(-0.26644,-0.96385,0.96385,-0.26644,178.491,1476.15)">
        <rect x="782.17" y="680.023" width="12.113" height="21.702" style="fill:rgb(47,46,65);"/>
    </g>
    <g transform="matrix(0.963853,-0.266436,0.266436,0.963853,-310.192,72.9374)">
        <ellipse cx="774.907" cy="691.938" rx="3.785" ry="10.094" style="fill:rgb(47,46,65);"/>
    </g>
    <circle cx="688.696" cy="509.944" r="13.627" style="fill:white;"/>
    <circle cx="693.054" cy="503.924" r="4.542" style="fill:rgb(63,61,86);"/>
    <g transform="matrix(1,0,0,1,-153.846,-158.537)">
        <path d="M878.116,718.72C892.87,717.982 904.17,704.181 903.355,687.895C902.54,671.61 889.919,659.006 875.164,659.745C860.41,660.483 858.094,672.065 858.909,688.351C859.725,704.637 863.361,719.458 878.116,718.72Z" style="fill:rgb(207,204,224);fill-rule:nonzero;"/>
    </g>
    <g transform="matrix(1,0,0,1,-153.846,-158.537)">
        <path d="M815.778,674.451C815.534,674.471 815.289,674.481 815.045,674.481C810.061,674.481 805.96,670.38 805.96,665.397C805.96,660.689 809.619,656.721 814.312,656.342C819.313,655.937 820.677,659.907 821.081,664.908C821.486,669.909 820.778,674.047 815.778,674.451Z" style="fill:white;fill-rule:nonzero;"/>
    </g>
    <g transform="matrix(0.134313,-0.990939,0.990939,0.134313,-100.569,1229.39)">
        <ellipse cx="821.011" cy="663.473" rx="19.935" ry="6.258" style="fill:rgb(47,46,65);"/>
    </g>
    <circle cx="669.697" cy="480.69" r="6" style="fill:rgb(234,88,11);"/>
    <g transform="matrix(1,0,0,1,-153.846,-158.537)">
        <path d="M788.579,501.208C788.621,500.888 788.642,500.566 788.642,500.244C788.642,496.155 785.277,492.79 781.188,492.79C781.172,492.79 781.157,492.79 781.141,492.79L778.765,492.79C779.34,491.713 779.641,490.511 779.641,489.29C779.629,485.18 776.251,481.802 772.141,481.79L747.141,481.79C743.027,481.79 739.641,485.176 739.641,489.29C739.641,493.405 743.027,496.79 747.141,496.79L749.517,496.79C748.942,497.867 748.641,499.069 748.641,500.29C748.653,503.479 750.69,506.33 753.704,507.373C753.662,507.693 753.641,508.015 753.641,508.337C753.641,512.426 757.006,515.79 761.094,515.79C761.11,515.79 761.126,515.79 761.141,515.79L786.141,515.79C786.143,515.79 786.145,515.79 786.147,515.79C790.258,515.79 793.641,512.407 793.641,508.296C793.641,505.102 791.6,502.244 788.579,501.208Z" style="fill:rgb(234,88,11);fill-rule:nonzero;"/>
    </g>
    <g transform="matrix(0.707107,0.707107,-0.707107,0.707107,371.927,-314.687)">
        <rect x="450.992" y="554.518" width="0.767" height="4.142" style="fill:rgb(63,61,86);"/>
    </g>
    <g transform="matrix(1,0,0,1,13.3805,-2)">
        <text x="353px" y="87.32px" style="font-family:'Rockwell-Bold', 'Rockwell', serif;font-weight:700;font-size:48px;fill:rgb(234,88,11);">N<tspan x="391.578px " y="87.32px ">o</tspan> o<tspan x="462.922px 485.773px 517.438px 546.125px " y="87.32px 87.32px 87.32px 87.32px ">rder</tspan> f<tspan x="599.938px 628.414px 660.758px 692.867px " y="87.32px 87.32px 87.32px 87.32px ">ound</tspan>.</text>
        <text x="353px" y="156.93px" style="font-family:'Rockwell-Bold', 'Rockwell', serif;font-weight:700;font-size:48px;fill:rgb(234,88,11);">L<tspan x="387.125px " y="156.93px ">e</tspan>t&apos;s g<tspan x="518.164px " y="156.93px ">e</tspan>t o<tspan x="607.836px 639.945px " y="156.93px 156.93px ">ne</tspan>!</text>
    </g>
</svg>
